<svg viewBox="0 0 100 100" xmlns="http://www.w3.org/2000/svg">
  <defs>
    <!-- Light green pulse gradient -->
    <linearGradient id="pulseLightGreen" x1="0%" y1="0%" x2="100%" y2="0%">
      <stop offset="0%" style="stop-color:#34d399;stop-opacity:1" />
      <stop offset="50%" style="stop-color:#6ee7b7;stop-opacity:1" />
      <stop offset="100%" style="stop-color:#34d399;stop-opacity:1" />
    </linearGradient>
    
    <!-- Dark green circle outline -->
    <linearGradient id="circleOutline" x1="0%" y1="0%" x2="100%" y2="100%">
      <stop offset="0%" style="stop-color:#047857;stop-opacity:1" />
      <stop offset="100%" style="stop-color:#065f46;stop-opacity:1" />
    </linearGradient>
    
    <!-- Very dark circle interior -->
    <radialGradient id="circleInterior" cx="50%" cy="40%" r="60%">
      <stop offset="0%" style="stop-color:#1f2937;stop-opacity:1" />
      <stop offset="100%" style="stop-color:#111827;stop-opacity:1" />
    </radialGradient>
  </defs>
  
  <!-- Logo Icon - Circle with Brain Elements -->
  <g transform="translate(50, 50)">
    
    <!-- Circular outline -->
    <circle cx="0" cy="0" r="40" 
            fill="url(#circleInterior)" 
            stroke="url(#circleOutline)" 
            stroke-width="3"/>
    
    <!-- Realistic ECG-style pulse wave -->
    <g stroke="url(#pulseLightGreen)" stroke-width="2.5" fill="none">
      <path d="M-30 0 L-25 0 L-22 0 L-20 -15 L-18 25 L-16 -8 L-14 0 L-10 0 L-8 -12 L-6 20 L-4 -5 L-2 0 L2 0 L4 -5 L6 20 L8 -12 L10 0 L14 0 L16 -8 L18 25 L20 -15 L22 0 L25 0 L30 0"/>
    </g>
    
  </g>
</svg>